<?xml version="1.0" standalone="no"?>
<!DOCTYPE svg PUBLIC "-//W3C//DTD SVG 20010904//EN"
 "http://www.w3.org/TR/2001/REC-SVG-20010904/DTD/svg10.dtd">
<svg version="1.0" xmlns="http://www.w3.org/2000/svg"
 width="240.000000pt" height="240.000000pt" viewBox="0 0 240.000000 240.000000"
 preserveAspectRatio="xMidYMid meet">
<metadata>
Created by potrace 1.11, written by Peter Selinger 2001-2013
</metadata>
<g transform="translate(0.000000,240.000000) scale(0.100000,-0.100000)"
fill="#000000" stroke="none">
<path d="M1080 2395 c-8 -2 -49 -9 -90 -15 -232 -38 -459 -157 -636 -334 -170
-170 -279 -371 -330 -606 -26 -118 -26 -362 0 -480 102 -472 463 -834 936
-936 118 -26 362 -26 480 0 473 102 835 464 936 936 23 106 26 352 5 455 -48
245 -161 457 -335 631 -170 170 -369 278 -608 330 -66 14 -321 28 -358 19z
m244 -160 c184 -48 335 -195 381 -370 22 -84 19 -209 -5 -288 -39 -124 -146
-236 -296 -307 -36 -17 -124 -46 -197 -66 -316 -85 -478 -220 -523 -436 -25
-117 -4 -237 62 -358 26 -48 132 -158 184 -192 14 -9 22 -19 18 -23 -13 -14
-102 15 -213 70 -207 101 -367 260 -471 470 -81 164 -106 272 -107 460 0 104
4 172 16 220 98 427 423 743 844 819 105 19 236 19 307 1z m-54 -1430 c47 -24
74 -72 74 -130 0 -186 -266 -198 -290 -13 -14 111 113 196 216 143z"/>
<path d="M1162 1870 c-61 -14 -112 -80 -112 -145 0 -96 95 -168 187 -143 96
26 144 140 91 218 -42 62 -98 85 -166 70z"/>
</g>
</svg>
